<mxfile host="app.diagrams.net" modified="2022-07-20T12:18:49.959Z" agent="5.0 (Windows NT 10.0; Win64; x64) AppleWebKit/537.36 (KHTML, like Gecko) Chrome/103.0.0.0 Safari/537.36" etag="lD934suq8GJVL0PKN7VE" version="20.0.4" type="github">
  <diagram id="9nVqS5OE3FkqzzRUmqwl" name="Page-1">
    <mxGraphModel dx="1422" dy="794" grid="0" gridSize="10" guides="1" tooltips="1" connect="1" arrows="1" fold="1" page="1" pageScale="1" pageWidth="1169" pageHeight="827" math="0" shadow="0">
      <root>
        <mxCell id="0" />
        <mxCell id="1" parent="0" />
        <mxCell id="yc0z2XtCLCA2exAot_Af-1" value="Siklus Hidup Jagung" style="rounded=1;whiteSpace=wrap;html=1;" vertex="1" parent="1">
          <mxGeometry x="489" y="167" width="127" height="62" as="geometry" />
        </mxCell>
        <mxCell id="yc0z2XtCLCA2exAot_Af-2" value="Tahapan Persiapan" style="rounded=1;whiteSpace=wrap;html=1;" vertex="1" parent="1">
          <mxGeometry x="227" y="295" width="127" height="62" as="geometry" />
        </mxCell>
        <mxCell id="yc0z2XtCLCA2exAot_Af-3" value="Tahapan Pertumbuhan" style="rounded=1;whiteSpace=wrap;html=1;" vertex="1" parent="1">
          <mxGeometry x="436" y="297" width="127" height="62" as="geometry" />
        </mxCell>
        <mxCell id="yc0z2XtCLCA2exAot_Af-4" value="Tahapan Perkembangan" style="rounded=1;whiteSpace=wrap;html=1;" vertex="1" parent="1">
          <mxGeometry x="619" y="295" width="127" height="62" as="geometry" />
        </mxCell>
        <mxCell id="yc0z2XtCLCA2exAot_Af-5" value="Tahapan Panen" style="rounded=1;whiteSpace=wrap;html=1;" vertex="1" parent="1">
          <mxGeometry x="802" y="295" width="127" height="62" as="geometry" />
        </mxCell>
        <mxCell id="yc0z2XtCLCA2exAot_Af-6" value="Tahapan Persiapan" style="rounded=1;whiteSpace=wrap;html=1;" vertex="1" parent="1">
          <mxGeometry x="227" y="383" width="127" height="62" as="geometry" />
        </mxCell>
      </root>
    </mxGraphModel>
  </diagram>
</mxfile>
